<svg width="182" height="42" viewBox="0 0 182 42" fill="none" xmlns="http://www.w3.org/2000/svg">
<path fill-rule="evenodd" clip-rule="evenodd" d="M159.897 25.1736C159.805 25.3355 159.641 25.4518 159.407 25.4518C159.379 25.4518 159.352 25.4501 159.325 25.4469C159.198 25.4473 159.071 25.4487 158.944 25.4501C158.635 25.4535 158.326 25.4568 158.018 25.4468C154.462 25.3324 151.686 22.2079 151.671 18.5083C151.665 17.0157 151.667 15.5219 151.669 14.0277V14.0274V14.0272V14.0269V14.0266C151.67 13.2792 151.671 12.5317 151.671 11.7842V8.02623C151.671 7.92648 151.67 7.82681 151.67 7.72721L151.67 7.71547V7.71525C151.667 6.99117 151.665 6.27076 151.79 5.55275C152.386 2.16366 155.304 0 158.479 0H168.678C169.656 0 170.614 0.0364484 171.55 0.390879C172.415 0.718293 173.207 1.23194 173.873 1.89896C174.539 2.56598 175.065 3.37167 175.417 4.26448C175.827 5.30892 175.905 6.38416 175.905 7.49458V15.1764C175.905 15.5438 175.912 15.9162 175.919 16.2909C175.955 18.1942 175.992 20.1599 175.116 21.8616C174.674 22.7129 174.067 23.4571 173.333 24.0459C172.6 24.6346 171.757 25.0548 170.858 25.279C169.958 25.4959 169.012 25.4797 168.082 25.4638C167.953 25.4616 167.823 25.4594 167.694 25.4578L164.308 31.2326C164.126 31.5406 163.613 31.6914 163.365 31.3583L160.484 27.4816C160.017 26.8488 160.858 25.9514 161.333 26.5899L163.726 29.8154L166.651 24.8284L166.666 24.8024C166.856 24.4775 166.996 24.2378 167.413 24.1937C167.884 24.1438 168.342 24.1457 168.793 24.1475C169.711 24.1513 170.602 24.1549 171.527 23.7217C173.343 22.8721 174.614 20.9674 174.699 18.8753C174.758 17.412 174.74 15.9399 174.722 14.4704L174.722 14.4685C174.713 13.7614 174.705 13.055 174.705 12.3504V8.23423C174.705 8.07301 174.707 7.91046 174.709 7.74718C174.717 7.04175 174.725 6.3229 174.58 5.6401C174.359 4.6337 173.88 3.70991 173.195 2.96867C172.51 2.22743 171.646 1.69698 170.695 1.43469C169.996 1.24619 169.273 1.25334 168.555 1.26043C168.419 1.26178 168.283 1.26313 168.147 1.26313H160.122C159.908 1.26313 159.693 1.26215 159.478 1.26118C159.048 1.25922 158.618 1.25727 158.189 1.26313C157.2 1.27382 156.232 1.56958 155.392 2.11813C154.553 2.66668 153.872 3.44695 153.426 4.37383C152.92 5.42141 152.873 6.52052 152.873 7.65922V11.4122C152.873 12.2036 152.871 12.995 152.869 13.7865V13.7909C152.865 15.3723 152.861 16.9538 152.873 18.5347C152.886 20.3251 153.644 22.0193 155.027 23.0939C156.276 24.0634 157.642 24.1795 159.111 24.1902L162.831 18.9798C162.168 18.599 161.771 17.8738 161.397 17.1886L161.33 17.0667L159.411 13.5765C159.252 13.288 159.087 13.0007 158.922 12.7126L158.921 12.7125C158.545 12.0574 158.167 11.3986 157.855 10.7146C157.431 9.78078 157.105 8.33855 158.059 7.62089C158.488 7.2978 158.998 7.30343 159.503 7.309C159.568 7.30973 159.634 7.31045 159.699 7.31045H159.945C159.993 7.22934 160.049 7.15394 160.114 7.08603C160.275 6.91705 160.48 6.802 160.703 6.75545C160.926 6.70889 161.158 6.73291 161.368 6.82447C161.578 6.91603 161.758 7.07102 161.884 7.26983C162.01 7.46865 162.078 7.70235 162.078 7.94139C162.077 8.26168 161.956 8.5687 161.74 8.79512C161.524 9.02155 161.232 9.14888 160.927 9.14922C160.7 9.14922 160.477 9.07833 160.288 8.94551C160.149 8.84795 160.032 8.72019 159.946 8.57169H159.906C159.83 8.57169 159.737 8.56313 159.637 8.55384C159.265 8.51947 158.786 8.47522 158.661 8.81804C158.434 9.43657 158.921 10.2471 159.292 10.8624L159.292 10.8631L159.293 10.8649C159.371 10.9938 159.443 11.1142 159.502 11.2224L162.476 16.6312C162.485 16.6486 162.495 16.6663 162.505 16.6843L162.521 16.714L162.57 16.807L162.571 16.8078C162.858 17.3487 163.24 18.0658 163.89 17.9761C164.47 17.8953 164.811 17.2197 165.089 16.6696L165.089 16.6689L165.089 16.668L165.091 16.6656C165.145 16.5576 165.197 16.4544 165.248 16.3616L168.229 10.9396C168.263 10.8789 168.297 10.8182 168.33 10.7575C168.478 10.4928 168.627 10.2266 168.742 9.94543L168.745 9.93687C168.857 9.66351 169.141 8.96646 168.935 8.68104C168.789 8.47809 168.346 8.52087 168.015 8.55279C167.912 8.56277 167.82 8.57169 167.751 8.57169H167.55C167.503 8.65227 167.447 8.72742 167.382 8.79531C167.166 9.02177 166.874 9.14905 166.569 9.14922C166.341 9.14922 166.119 9.07833 165.93 8.94551C165.74 8.8127 165.593 8.62392 165.506 8.40307C165.419 8.18222 165.396 7.9392 165.44 7.70477C165.485 7.47033 165.595 7.25501 165.756 7.08603C165.917 6.91705 166.122 6.802 166.345 6.75545C166.568 6.70889 166.799 6.73291 167.01 6.82447C167.22 6.91603 167.4 7.07102 167.526 7.26983L167.533 7.28069C168.444 7.22567 169.507 7.18305 169.971 8.04508C170.569 9.15048 169.841 10.5317 169.312 11.492C168.935 12.1789 168.561 12.869 168.188 13.5592L168.188 13.5593L168.188 13.5597L168.187 13.5602L168.187 13.5604C167.431 14.9584 166.674 16.357 165.883 17.7316C165.485 18.4216 164.889 19.029 164.168 19.195L159.925 25.1395V25.1369C159.916 25.1497 159.907 25.1619 159.897 25.1736ZM177.869 1.14843H178.521C178.623 1.14843 178.699 1.12714 178.75 1.08454C178.801 1.04066 178.827 0.983211 178.827 0.912219C178.827 0.841226 178.801 0.783792 178.75 0.739906C178.701 0.696019 178.624 0.674072 178.521 0.674072H176.622C176.524 0.674072 176.449 0.695367 176.396 0.737962C176.345 0.780558 176.32 0.838644 176.32 0.912219C176.32 0.983211 176.345 1.04066 176.394 1.08454C176.444 1.12714 176.52 1.14843 176.622 1.14843H177.274V3.21046C177.274 3.32792 177.301 3.41569 177.356 3.47378C177.412 3.53186 177.485 3.5609 177.573 3.5609C177.661 3.5609 177.732 3.53252 177.787 3.47572C177.842 3.41764 177.869 3.32921 177.869 3.21046V1.14843ZM179.704 1.27623L180.177 3.0846C180.193 3.14397 180.209 3.20142 180.223 3.25692C180.239 3.31113 180.261 3.36084 180.288 3.40601C180.315 3.45119 180.352 3.48797 180.4 3.51637C180.449 3.54606 180.508 3.5609 180.577 3.5609C180.67 3.5609 180.742 3.53831 180.795 3.49314C180.847 3.44796 180.883 3.39827 180.901 3.34406C180.922 3.28855 180.947 3.20206 180.978 3.0846L181.451 1.27623V3.23562C181.451 3.34405 181.476 3.42537 181.527 3.47958C181.578 3.5338 181.643 3.5609 181.722 3.5609C181.807 3.5609 181.874 3.5338 181.924 3.47958C181.975 3.42537 182 3.34405 182 3.23562V0.989661C182 0.865746 181.966 0.782501 181.899 0.739906C181.832 0.696019 181.742 0.674072 181.628 0.674072H181.443C181.331 0.674072 181.25 0.683747 181.199 0.703109C181.15 0.72247 181.113 0.757329 181.089 0.80767C181.064 0.85801 181.037 0.939976 181.006 1.05356L180.577 2.60832L180.149 1.05356C180.118 0.939976 180.09 0.85801 180.066 0.80767C180.042 0.757329 180.005 0.72247 179.954 0.703109C179.904 0.683747 179.824 0.674072 179.712 0.674072H179.527C179.413 0.674072 179.323 0.696019 179.255 0.739906C179.188 0.782501 179.155 0.865746 179.155 0.989661V3.23562C179.155 3.34534 179.18 3.4273 179.231 3.48151C179.282 3.53444 179.348 3.5609 179.429 3.5609C179.512 3.5609 179.578 3.5338 179.628 3.47958C179.679 3.42537 179.704 3.34405 179.704 3.23562V1.27623ZM6.67853 34.5219H3.48598V39.209C3.48598 39.8792 3.32166 40.3874 2.99302 40.7338C2.66437 41.0801 2.24965 41.2533 1.74886 41.2533C1.22459 41.2533 0.80205 41.0839 0.48123 40.7451C0.16041 40.3987 0 39.8942 0 39.2316V26.469C0 25.7311 0.17606 25.2041 0.528179 24.8878C0.880299 24.5716 1.43978 24.4135 2.20662 24.4135H6.67853C8.00094 24.4135 9.01817 24.5113 9.73023 24.7071C10.4345 24.8953 11.0409 25.2078 11.5495 25.6445C12.066 26.0813 12.4572 26.6158 12.7232 27.2483C12.9893 27.8808 13.1223 28.5923 13.1223 29.3829C13.1223 31.0696 12.5824 32.3496 11.5026 33.223C10.4227 34.0889 8.81472 34.5219 6.67853 34.5219ZM5.83345 26.9321H3.48598V31.9919H5.83345C6.65506 31.9919 7.33973 31.9091 7.88748 31.7435C8.44304 31.5778 8.86559 31.3068 9.15511 30.9303C9.44463 30.5538 9.58939 30.0606 9.58939 29.4507C9.58939 28.7204 9.36638 28.1255 8.92036 27.6662C8.41957 27.1768 7.3906 26.9321 5.83345 26.9321ZM19.7783 40.8241C20.506 40.5305 21.2572 40.0937 22.0319 39.514C22.3918 40.0787 22.7322 40.5116 23.053 40.8128C23.3738 41.1065 23.6986 41.2533 24.0272 41.2533C24.4185 41.2533 24.7667 41.1253 25.0718 40.8693C25.3848 40.6058 25.5413 40.3159 25.5413 39.9996C25.5413 39.8189 25.4396 39.4161 25.2362 38.7911C25.0405 38.1587 24.9427 37.5525 24.9427 36.9727C24.9506 36.3553 24.9545 35.7944 24.9545 35.2899C24.9623 34.7854 24.9662 34.1718 24.9662 33.4489C24.9662 32.3044 24.798 31.3858 24.4615 30.6931C24.1329 30.0004 23.5656 29.4959 22.7596 29.1797C21.9536 28.8559 20.8464 28.694 19.4379 28.694C18.1781 28.694 17.1257 28.8597 16.2806 29.191C15.4355 29.5223 14.8134 29.9439 14.4144 30.4559C14.0153 30.9679 13.8158 31.495 13.8158 32.0371C13.8158 32.3835 13.9449 32.6696 14.2031 32.8955C14.4691 33.1138 14.7821 33.223 15.1421 33.223C15.5411 33.223 15.7994 33.1553 15.9167 33.0197C16.0419 32.8767 16.2493 32.5868 16.5388 32.1501C16.8362 31.7133 17.1883 31.3858 17.5952 31.1675C18.0099 30.9491 18.6241 30.8399 19.4379 30.8399C20.3847 30.8399 21.0068 31.0319 21.3042 31.4159C21.6093 31.7924 21.7815 32.3872 21.8206 33.2004C21.1477 33.3887 20.5217 33.5506 19.9426 33.6861C19.3714 33.8141 18.6828 33.9572 17.8769 34.1153C17.0709 34.2734 16.5662 34.375 16.3628 34.4202C15.3925 34.6235 14.6295 35.0226 14.074 35.6174C13.5184 36.2123 13.2406 36.9313 13.2406 37.7746C13.2406 38.3996 13.4089 38.9794 13.7453 39.514C14.0818 40.0486 14.5591 40.474 15.1773 40.7902C15.8033 41.0989 16.5271 41.2533 17.3487 41.2533C18.2486 41.2533 19.0584 41.1102 19.7783 40.8241ZM19.7666 35.5835C20.6664 35.3953 21.3511 35.2184 21.8206 35.0527V35.4932C21.8206 36.5624 21.6758 37.3304 21.3863 37.7972C21.1359 38.2189 20.7408 38.5652 20.2009 38.8363C19.6688 39.0998 19.0858 39.2316 18.452 39.2316C17.8573 39.2316 17.3761 39.0697 17.0083 38.746C16.6405 38.4147 16.4567 38.0156 16.4567 37.5488C16.4567 37.097 16.6132 36.7469 16.9261 36.4984C17.2391 36.2424 17.5678 36.073 17.9121 35.9901C18.2564 35.8998 18.8745 35.7643 19.7666 35.5835ZM26.8334 28.9877H27.1855V27.1354C27.1855 26.6384 27.1972 26.2507 27.2207 25.9721C27.252 25.6859 27.3303 25.4412 27.4555 25.2379C27.5807 25.0271 27.7606 24.8577 27.9954 24.7297C28.2301 24.5942 28.4923 24.5264 28.7818 24.5264C29.1887 24.5264 29.5564 24.6732 29.8851 24.9669C30.1042 25.1626 30.2411 25.4036 30.2959 25.6897C30.3585 25.9683 30.3898 26.3674 30.3898 26.8869V28.9877H31.5635C32.0174 28.9877 32.3617 29.0931 32.5964 29.3039C32.839 29.5072 32.9603 29.7707 32.9603 30.0945C32.9603 30.5086 32.7881 30.7985 32.4438 30.9642C32.1073 31.1298 31.6222 31.2126 30.9884 31.2126H30.3898V36.8824C30.3898 37.3643 30.4054 37.737 30.4367 38.0005C30.4759 38.2565 30.5698 38.4674 30.7184 38.633C30.8749 38.7911 31.1253 38.8702 31.4696 38.8702C31.6574 38.8702 31.9117 38.8401 32.2325 38.7798C32.5534 38.7121 32.8038 38.6782 32.9837 38.6782C33.242 38.6782 33.4728 38.7798 33.6762 38.9831C33.8875 39.1789 33.9931 39.4236 33.9931 39.7173C33.9931 40.2142 33.7114 40.5945 33.1481 40.858C32.5847 41.1215 31.7748 41.2533 30.7184 41.2533C29.7169 41.2533 28.9578 41.0914 28.4414 40.7676C27.925 40.4439 27.5846 39.9959 27.4202 39.4236C27.2638 38.8514 27.1855 38.0871 27.1855 37.1309V31.2126H26.763C26.3013 31.2126 25.9492 31.1072 25.7066 30.8964C25.464 30.6856 25.3427 30.4183 25.3427 30.0945C25.3427 29.7707 25.4679 29.5072 25.7183 29.3039C25.9766 29.0931 26.3482 28.9877 26.8334 28.9877ZM37.4214 39.3784V30.4672C37.4214 29.9176 37.2688 29.4884 36.9636 29.1797C36.6585 28.8709 36.2711 28.7166 35.8016 28.7166C35.3321 28.7166 34.9487 28.8709 34.6514 29.1797C34.3619 29.4884 34.2171 29.9477 34.2171 30.5576V39.3784C34.2171 39.9808 34.3619 40.4439 34.6514 40.7676C34.9487 41.0914 35.3321 41.2533 35.8016 41.2533C36.2711 41.2533 36.6585 41.0952 36.9636 40.7789C37.2688 40.4627 37.4214 39.9959 37.4214 39.3784ZM34.6866 26.8869C35.0074 27.1504 35.3908 27.2822 35.8368 27.2822C36.2672 27.2822 36.6389 27.1504 36.9519 26.8869C37.2649 26.6158 37.4214 26.2431 37.4214 25.7688C37.4214 25.2794 37.261 24.9066 36.9401 24.6506C36.6193 24.3946 36.2516 24.2666 35.8368 24.2666C35.4065 24.2666 35.027 24.4097 34.6983 24.6958C34.3775 24.9744 34.2171 25.3321 34.2171 25.7688C34.2171 26.2507 34.3736 26.6234 34.6866 26.8869ZM48.7254 35.7417H42.4576C42.4655 36.4419 42.6102 37.0593 42.8919 37.5939C43.1814 38.1285 43.5609 38.5314 44.0304 38.8024C44.5077 39.0735 45.032 39.209 45.6032 39.209C45.9866 39.209 46.3349 39.1676 46.6478 39.0848C46.9687 38.9944 47.2778 38.8589 47.5751 38.6782C47.8724 38.4899 48.1463 38.2904 48.3967 38.0796C48.6471 37.8688 48.9718 37.5826 49.3709 37.2212C49.5352 37.0857 49.77 37.0179 50.0751 37.0179C50.4038 37.0179 50.6698 37.1045 50.8733 37.2777C51.0767 37.4509 51.1785 37.6956 51.1785 38.0118C51.1785 38.2904 51.065 38.618 50.8381 38.9944C50.6111 39.3634 50.2669 39.721 49.8052 40.0674C49.3513 40.4062 48.7762 40.6886 48.0798 40.9145C47.3912 41.1404 46.597 41.2533 45.6971 41.2533C43.6392 41.2533 42.039 40.6886 40.8966 39.5591C39.7541 38.4297 39.1829 36.8974 39.1829 34.9624C39.1829 34.0513 39.3238 33.208 39.6055 32.4324C39.8872 31.6494 40.298 30.9792 40.8379 30.422C41.3778 29.8648 42.0429 29.4394 42.8332 29.1458C43.6235 28.8446 44.4999 28.694 45.4624 28.694C46.7144 28.694 47.7864 28.95 48.6784 29.462C49.5783 29.9665 50.2512 30.6216 50.6972 31.4272C51.1432 32.2329 51.3662 33.0536 51.3662 33.8894C51.3662 34.6649 51.1354 35.1694 50.6737 35.4028C50.2121 35.6287 49.5626 35.7417 48.7254 35.7417ZM42.4576 33.991H48.2676C48.1894 32.9369 47.892 32.1501 47.3756 31.6305C46.8669 31.1035 46.194 30.8399 45.3567 30.8399C44.5586 30.8399 43.9013 31.1072 43.3849 31.6418C42.8763 32.1689 42.5672 32.952 42.4576 33.991ZM56.0269 30.7948V30.422C56.0269 30.0531 55.9565 29.7406 55.8156 29.4846C55.6826 29.2286 55.5026 29.0366 55.2757 28.9086C55.0488 28.7806 54.7945 28.7166 54.5128 28.7166C54.0511 28.7166 53.6873 28.8634 53.4212 29.1571C53.1552 29.4432 53.0222 29.8799 53.0222 30.4672V39.3784C53.0222 39.9808 53.1708 40.4439 53.4682 40.7676C53.7655 41.0914 54.145 41.2533 54.6067 41.2533C55.084 41.2533 55.4713 41.0989 55.7687 40.7902C56.0739 40.474 56.2264 40.0034 56.2264 39.3784V35.5158C56.2264 34.2583 56.3047 33.4 56.4612 32.9407C56.6803 32.3684 57.0246 31.9204 57.4941 31.5966C57.9636 31.2653 58.4839 31.0997 59.0551 31.0997C59.9315 31.0997 60.5145 31.3708 60.804 31.9129C61.1013 32.4475 61.25 33.223 61.25 34.2395V39.3784C61.25 39.9808 61.3987 40.4439 61.696 40.7676C61.9934 41.0914 62.3807 41.2533 62.858 41.2533C63.3275 41.2533 63.707 41.0952 63.9965 40.7789C64.2939 40.4627 64.4426 39.9959 64.4426 39.3784V33.6409C64.4426 32.9633 64.4113 32.4061 64.3487 31.9694C64.2861 31.5326 64.1491 31.126 63.9379 30.7496C63.6092 30.102 63.1123 29.6013 62.4472 29.2474C61.7821 28.8935 61.027 28.7166 60.1819 28.7166C59.3134 28.7166 58.5426 28.886 57.8697 29.2248C57.2045 29.5561 56.5903 30.0794 56.0269 30.7948ZM66.8614 28.9877H67.2135V27.1354C67.2135 26.6384 67.2252 26.2507 67.2487 25.9721C67.28 25.6859 67.3583 25.4412 67.4835 25.2379C67.6087 25.0271 67.7886 24.8577 68.0234 24.7297C68.2581 24.5942 68.5203 24.5264 68.8098 24.5264C69.2167 24.5264 69.5844 24.6732 69.9131 24.9669C70.1322 25.1626 70.2691 25.4036 70.3239 25.6897C70.3865 25.9683 70.4178 26.3674 70.4178 26.8869V28.9877H71.5915C72.0454 28.9877 72.3897 29.0931 72.6244 29.3039C72.867 29.5072 72.9883 29.7707 72.9883 30.0945C72.9883 30.5086 72.8161 30.7985 72.4718 30.9642C72.1353 31.1298 71.6502 31.2126 71.0164 31.2126H70.4178V36.8824C70.4178 37.3643 70.4334 37.737 70.4647 38.0005C70.5039 38.2565 70.5978 38.4674 70.7464 38.633C70.9029 38.7911 71.1533 38.8702 71.4976 38.8702C71.6854 38.8702 71.9397 38.8401 72.2605 38.7798C72.5814 38.7121 72.8318 38.6782 73.0117 38.6782C73.27 38.6782 73.5008 38.7798 73.7042 38.9831C73.9155 39.1789 74.0211 39.4236 74.0211 39.7173C74.0211 40.2142 73.7394 40.5945 73.1761 40.858C72.6127 41.1215 71.8028 41.2533 70.7464 41.2533C69.7448 41.2533 68.9858 41.0914 68.4694 40.7676C67.953 40.4439 67.6126 39.9959 67.4482 39.4236C67.2917 38.8514 67.2135 38.0871 67.2135 37.1309V31.2126H66.791C66.3293 31.2126 65.9772 31.1072 65.7346 30.8964C65.492 30.6856 65.3707 30.4183 65.3707 30.0945C65.3707 29.7707 65.4959 29.5072 65.7463 29.3039C66.0046 29.0931 66.3762 28.9877 66.8614 28.9877ZM77.9541 34.5219H81.1466C83.2828 34.5219 84.8908 34.0889 85.9707 33.223C87.0505 32.3496 87.5904 31.0696 87.5904 29.3829C87.5904 28.5923 87.4574 27.8808 87.1914 27.2483C86.9253 26.6158 86.5341 26.0813 86.0176 25.6445C85.509 25.2078 84.9026 24.8953 84.1983 24.7071C83.4863 24.5113 82.469 24.4135 81.1466 24.4135H76.6747C75.9079 24.4135 75.3484 24.5716 74.9963 24.8878C74.6442 25.2041 74.4681 25.7311 74.4681 26.469V39.2316C74.4681 39.8942 74.6285 40.3987 74.9493 40.7451C75.2702 41.0839 75.6927 41.2533 76.217 41.2533C76.7178 41.2533 77.1325 41.0801 77.4611 40.7338C77.7898 40.3874 77.9541 39.8792 77.9541 39.209V34.5219ZM77.9541 26.9321H80.3016C81.8587 26.9321 82.8877 27.1768 83.3885 27.6662C83.8345 28.1255 84.0575 28.7204 84.0575 29.4507C84.0575 30.0606 83.9127 30.5538 83.6232 30.9303C83.3337 31.3068 82.9111 31.5778 82.3556 31.7435C81.8078 31.9091 81.1232 31.9919 80.3016 31.9919H77.9541V26.9321ZM96.5 39.514C95.7253 40.0937 94.9741 40.5305 94.2464 40.8241C93.5265 41.1102 92.7167 41.2533 91.8168 41.2533C90.9952 41.2533 90.2714 41.0989 89.6454 40.7902C89.0272 40.474 88.5499 40.0486 88.2134 39.514C87.877 38.9794 87.7087 38.3996 87.7087 37.7746C87.7087 36.9313 87.9865 36.2123 88.5421 35.6174C89.0976 35.0226 89.8606 34.6235 90.8309 34.4202C91.0343 34.375 91.539 34.2734 92.345 34.1153C93.1509 33.9572 93.8395 33.8141 94.4107 33.6861C94.9898 33.5506 95.6158 33.3887 96.2887 33.2004C96.2496 32.3872 96.0774 31.7924 95.7723 31.4159C95.4749 31.0319 94.8528 30.8399 93.906 30.8399C93.0922 30.8399 92.478 30.9491 92.0633 31.1675C91.6564 31.3858 91.3043 31.7133 91.0069 32.1501C90.7174 32.5868 90.51 32.8767 90.3848 33.0197C90.2675 33.1553 90.0092 33.223 89.6102 33.223C89.2502 33.223 88.9372 33.1138 88.6712 32.8955C88.413 32.6696 88.2839 32.3835 88.2839 32.0371C88.2839 31.495 88.4834 30.9679 88.8825 30.4559C89.2815 29.9439 89.9036 29.5223 90.7487 29.191C91.5938 28.8597 92.6462 28.694 93.906 28.694C95.3145 28.694 96.4217 28.8559 97.2277 29.1797C98.0337 29.4959 98.601 30.0004 98.9296 30.6931C99.2661 31.3858 99.4343 32.3044 99.4343 33.4489C99.4343 34.1718 99.4304 34.7854 99.4226 35.2899C99.4226 35.7944 99.4187 36.3553 99.4108 36.9727C99.4108 37.5525 99.5086 38.1587 99.7043 38.7911C99.9077 39.4161 100.009 39.8189 100.009 39.9996C100.009 40.3159 99.8529 40.6058 99.5399 40.8693C99.2348 41.1253 98.8866 41.2533 98.4953 41.2533C98.1667 41.2533 97.8419 41.1065 97.5211 40.8128C97.2003 40.5116 96.8599 40.0787 96.5 39.514ZM96.2887 35.0527C95.8192 35.2184 95.1345 35.3953 94.2347 35.5835C93.3427 35.7643 92.7245 35.8998 92.3802 35.9901C92.0359 36.073 91.7072 36.2424 91.3942 36.4984C91.0813 36.7469 90.9248 37.097 90.9248 37.5488C90.9248 38.0156 91.1086 38.4147 91.4764 38.746C91.8442 39.0697 92.3254 39.2316 92.9201 39.2316C93.5539 39.2316 94.1369 39.0998 94.669 38.8363C95.2089 38.5652 95.604 38.2189 95.8544 37.7972C96.144 37.3304 96.2887 36.5624 96.2887 35.4932V35.0527ZM104.917 39.3784V36.8033C104.917 35.8772 104.948 35.0941 105.01 34.4541C105.073 33.8066 105.187 33.2494 105.351 32.7825C105.515 32.3157 105.746 31.9656 106.043 31.7322C106.341 31.4912 106.724 31.3708 107.194 31.3708C107.538 31.3708 107.933 31.4423 108.379 31.5854C108.833 31.7209 109.119 31.7886 109.236 31.7886C109.549 31.7886 109.838 31.6682 110.104 31.4272C110.322 31.2295 110.454 30.9912 110.498 30.7123C110.546 30.7778 110.603 30.8392 110.669 30.8964C110.911 31.1072 111.263 31.2126 111.725 31.2126H112.148V37.1309C112.148 38.0871 112.226 38.8514 112.382 39.4236C112.547 39.9959 112.887 40.4439 113.404 40.7676C113.92 41.0914 114.679 41.2533 115.681 41.2533C116.737 41.2533 117.547 41.1215 118.11 40.858C118.674 40.5945 118.955 40.2142 118.955 39.7173C118.955 39.4236 118.85 39.1789 118.638 38.9831C118.435 38.7798 118.204 38.6782 117.946 38.6782C117.766 38.6782 117.516 38.7121 117.195 38.7798C116.874 38.8401 116.62 38.8702 116.432 38.8702C116.088 38.8702 115.837 38.7911 115.681 38.633C115.532 38.4674 115.438 38.2565 115.399 38.0005C115.368 37.737 115.352 37.3643 115.352 36.8824V31.2126H115.951C116.584 31.2126 117.07 31.1298 117.406 30.9642C117.75 30.7985 117.922 30.5086 117.922 30.0945C117.922 29.7707 117.801 29.5072 117.559 29.3039C117.324 29.0931 116.98 28.9877 116.526 28.9877H115.352V26.8869C115.352 26.3674 115.321 25.9683 115.258 25.6897C115.203 25.4036 115.066 25.1626 114.847 24.9669C114.519 24.6732 114.151 24.5264 113.744 24.5264C113.454 24.5264 113.192 24.5942 112.958 24.7297C112.723 24.8577 112.543 25.0271 112.418 25.2379C112.292 25.4412 112.214 25.6859 112.183 25.9721C112.159 26.2507 112.148 26.6384 112.148 27.1354V28.9877H111.796C111.31 28.9877 110.939 29.0931 110.681 29.3039C110.497 29.4526 110.381 29.6335 110.332 29.8467C110.176 29.5987 109.92 29.3839 109.565 29.2023C108.931 28.8785 108.277 28.7166 107.604 28.7166C106.931 28.7166 106.392 28.8785 105.985 29.2023C105.586 29.526 105.194 30.0041 104.811 30.6366C104.787 30.0041 104.658 29.526 104.424 29.2023C104.189 28.8785 103.805 28.7166 103.273 28.7166C102.233 28.7166 101.712 29.4093 101.712 30.7948V39.3784C101.712 39.9959 101.861 40.4627 102.158 40.7789C102.456 41.0952 102.835 41.2533 103.297 41.2533C103.766 41.2533 104.154 41.0989 104.459 40.7902C104.764 40.474 104.917 40.0034 104.917 39.3784ZM122.09 30.7948V30.422C122.09 30.0531 122.02 29.7406 121.879 29.4846C121.746 29.2286 121.566 29.0366 121.339 28.9086C121.112 28.7806 120.858 28.7166 120.576 28.7166C120.114 28.7166 119.751 28.8634 119.484 29.1571C119.218 29.4432 119.085 29.8799 119.085 30.4672V39.3784C119.085 39.9808 119.234 40.4439 119.531 40.7676C119.829 41.0914 120.208 41.2533 120.67 41.2533C121.147 41.2533 121.535 41.0989 121.832 40.7902C122.137 40.474 122.29 40.0034 122.29 39.3784V35.5158C122.29 34.2583 122.368 33.4 122.524 32.9407C122.744 32.3684 123.088 31.9204 123.557 31.5966C124.027 31.2653 124.547 31.0997 125.118 31.0997C125.995 31.0997 126.578 31.3708 126.867 31.9129C127.165 32.4475 127.313 33.223 127.313 34.2395V39.3784C127.313 39.9808 127.462 40.4439 127.759 40.7676C128.057 41.0914 128.444 41.2533 128.921 41.2533C129.391 41.2533 129.77 41.0952 130.06 40.7789C130.357 40.4627 130.506 39.9959 130.506 39.3784V33.6409C130.506 32.9633 130.475 32.4061 130.412 31.9694C130.349 31.5326 130.212 31.126 130.001 30.7496C129.672 30.102 129.176 29.6013 128.51 29.2474C127.845 28.8935 127.09 28.7166 126.245 28.7166C125.377 28.7166 124.606 28.886 123.933 29.2248C123.268 29.5561 122.654 30.0794 122.09 30.7948ZM141.692 35.7417H135.425C135.432 36.4419 135.577 37.0593 135.859 37.5939C136.148 38.1285 136.528 38.5314 136.997 38.8024C137.475 39.0735 137.999 39.209 138.57 39.209C138.954 39.209 139.302 39.1676 139.615 39.0848C139.936 38.9944 140.245 38.8589 140.542 38.6782C140.839 38.4899 141.113 38.2904 141.364 38.0796C141.614 37.8688 141.939 37.5826 142.338 37.2212C142.502 37.0857 142.737 37.0179 143.042 37.0179C143.371 37.0179 143.637 37.1045 143.84 37.2777C144.044 37.4509 144.145 37.6956 144.145 38.0118C144.145 38.2904 144.032 38.618 143.805 38.9944C143.578 39.3634 143.234 39.721 142.772 40.0674C142.318 40.4062 141.743 40.6886 141.047 40.9145C140.358 41.1404 139.564 41.2533 138.664 41.2533C136.606 41.2533 135.006 40.6886 133.864 39.5591C132.721 38.4297 132.15 36.8974 132.15 34.9624C132.15 34.0513 132.291 33.208 132.573 32.4324C132.854 31.6494 133.265 30.9792 133.805 30.422C134.345 29.8648 135.01 29.4394 135.8 29.1458C136.591 28.8446 137.467 28.694 138.429 28.694C139.681 28.694 140.753 28.95 141.645 29.462C142.545 29.9665 143.218 30.6216 143.664 31.4272C144.11 32.2329 144.333 33.0536 144.333 33.8894C144.333 34.6649 144.102 35.1694 143.641 35.4028C143.179 35.6287 142.53 35.7417 141.692 35.7417ZM135.425 33.991H141.235C141.156 32.9369 140.859 32.1501 140.343 31.6305C139.834 31.1035 139.161 30.8399 138.324 30.8399C137.526 30.8399 136.868 31.1072 136.352 31.6418C135.843 32.1689 135.534 32.952 135.425 33.991ZM149.264 39.3784V36.8033C149.264 35.8772 149.295 35.0941 149.358 34.4541C149.42 33.8066 149.534 33.2494 149.698 32.7825C149.863 32.3157 150.093 31.9656 150.391 31.7322C150.688 31.4912 151.071 31.3708 151.541 31.3708C151.885 31.3708 152.28 31.4423 152.726 31.5854C153.18 31.7209 153.466 31.7886 153.583 31.7886C153.896 31.7886 154.186 31.6682 154.452 31.4272C154.726 31.1788 154.863 30.8663 154.863 30.4898C154.863 29.9552 154.546 29.526 153.912 29.2023C153.278 28.8785 152.625 28.7166 151.952 28.7166C151.279 28.7166 150.739 28.8785 150.332 29.2023C149.933 29.526 149.542 30.0041 149.158 30.6366C149.135 30.0041 149.006 29.526 148.771 29.2023C148.536 28.8785 148.153 28.7166 147.621 28.7166C146.58 28.7166 146.06 29.4093 146.06 30.7948V39.3784C146.06 39.9959 146.208 40.4627 146.506 40.7789C146.803 41.0952 147.182 41.2533 147.644 41.2533C148.114 41.2533 148.501 41.0989 148.806 40.7902C149.111 40.474 149.264 40.0034 149.264 39.3784Z" fill="#74CCD3"/>
</svg>
