<svg width="1920" height="1080" viewBox="0 0 1920 1080" xmlns="http://www.w3.org/2000/svg"><path d="M1491,572.9999999999999C1524.4591245408228,636.3049256275707,1492.3300937227682,777.9336587839952,1465.3854513854074,820.788963036718C1438.4408090480465,863.6442672894408,1389.0924728188922,794.7329850843731,1329.3321459758351,830.1318255163369C1269.571819132778,865.5306659483007,1186.5160963775484,1006.2756993534736,1106.823490327065,1033.1820056285007C1027.1308842765816,1060.088311903528,923.9513402336992,1003.6897427219642,851.176509672935,991.5696631665C778.4016791121709,979.4495836110359,705.2165269200598,995.5916449840126,670.1745069624801,960.4615282957157C635.1324870049004,925.3314116074187,679.2868077545372,843.1992177526706,640.9243899274572,780.7889630367181C602.5619721003773,718.3787083207656,457.32217426270455,655.4296543455728,440,586.0000000000001C422.67782573729545,516.5703456544275,488.2494727224446,404.586748581067,536.9913443512299,364.211036963282C585.7332159800153,323.83532534549704,671.4038219336027,390.2537621030802,732.4512297727122,343.7457302932903C793.4986376118217,297.2376984835004,840.4093001510719,134.42666013600055,903.2757913858868,85.16284610454261C966.1422826207017,35.89903207308466,1050.7613085738444,31.439399234808974,1109.6501771816017,48.16284610454261C1168.539045789359,64.88629297427624,1230.7789152059527,120.03743346181938,1256.6090030324308,185.50352732294442C1282.439090858909,250.96962118406947,1225.5655379792083,376.37666382511696,1264.6307041404698,440.9594092712929C1303.6958703017312,505.5421547174688,1457.5408754591772,509.695074372429,1491,572.9999999999999C1524.4591245408228,636.3049256275707,1492.3300937227682,777.9336587839952,1465.3854513854074,820.788963036718" fill="#a3acd3"/></svg>