<svg class="fill-current h-10 w-10" width="54px" height="54px" viewBox="0 0 54 54" version="1.1" xmlns="http://www.w3.org/2000/svg" xmlns:xlink="http://www.w3.org/1999/xlink">
			    <g id="v1" stroke="none" stroke-width="1" fill="none" fill-rule="evenodd" fill-opacity="0.87">
			        <g id="logo" fill="#fff">
			            <path d="M27,54 C12.0883118,54 0,41.9116882 0,27 C0,12.0883118 12.0883118,0 27,0 C41.9116882,0 54,12.0883118 54,27 C54,41.9116882 41.9116882,54 27,54 Z M27,51.9230769 C40.7646353,51.9230769 51.9230769,40.7646353 51.9230769,27 C51.9230769,13.2353647 40.7646353,2.07692308 27,2.07692308 C13.2353647,2.07692308 2.07692308,13.2353647 2.07692308,27 C2.07692308,40.7646353 13.2353647,51.9230769 27,51.9230769 Z" id="Oval" fill-rule="nonzero"></path>
			            <path d="M35.3076923,32.1945701 C35.3076923,33.3137311 35.0053081,34.3272956 34.4005305,35.2352941 C33.7957529,36.1432926 32.9363451,36.8665131 31.8222812,37.4049774 C30.7082172,37.9434416 29.4191055,38.2549015 27.9549072,38.3393665 L27.9549072,40.5882353 C27.9549072,40.8627465 27.8647224,41.0897427 27.6843501,41.2692308 C27.5039779,41.4487188 27.2652535,41.5384615 26.9681698,41.5384615 C26.6923063,41.5384615 26.4641919,41.4539978 26.2838196,41.2850679 C26.1034474,41.1161379 26.0132626,40.8838627 26.0132626,40.5882353 L26.0132626,38.3393665 C23.721474,38.1915528 21.5782593,37.6953285 19.5835544,36.8506787 C19.3289112,36.7450975 19.1167117,36.5708911 18.9469496,36.3280543 C18.7771875,36.0852175 18.6923077,35.8265474 18.6923077,35.5520362 C18.6923077,35.19306 18.8143224,34.8816001 19.0583554,34.6176471 C19.3023885,34.353694 19.6153827,34.2217195 19.9973475,34.2217195 C20.2095501,34.2217195 20.4111396,34.2639513 20.602122,34.3484163 C22.3209635,35.1086011 24.124659,35.5309196 26.0132626,35.6153846 L26.0132626,28.3303167 C24.5702846,27.9502243 23.3554426,27.5384638 22.3687003,27.0950226 C21.3819579,26.6515815 20.559685,26.0233826 19.9018568,25.2104072 C19.2440285,24.3974318 18.9151194,23.3680304 18.9151194,22.1221719 C18.9151194,21.0241272 19.1856737,20.0105627 19.7267905,19.081448 C20.2679072,18.1523332 21.0742652,17.3816019 22.1458886,16.7692308 C23.217512,16.1568597 24.5066238,15.787331 26.0132626,15.6606335 L26.0132626,13.4434389 C26.0132626,13.1689277 26.1034474,12.9366525 26.2838196,12.7466063 C26.4641919,12.5565601 26.6923063,12.4615385 26.9681698,12.4615385 C27.2440332,12.4615385 27.4774526,12.5565601 27.668435,12.7466063 C27.8594174,12.9366525 27.9549072,13.1689277 27.9549072,13.4434389 L27.9549072,15.6289593 C30.0344932,15.7134243 31.8806285,16.0618371 33.4933687,16.6742081 C34.0875361,16.8853706 34.3846154,17.3076891 34.3846154,17.9411765 C34.3846154,18.2790364 34.2679057,18.5852173 34.0344828,18.8597285 C33.8010598,19.1342397 33.4933706,19.2714932 33.1114058,19.2714932 C32.9840842,19.2714932 32.8143247,19.2292614 32.602122,19.1447964 C31.159144,18.6380065 29.6100879,18.3529415 27.9549072,18.2895928 L27.9549072,25.8280543 C29.4827663,26.1870305 30.7506581,26.5776751 31.7586207,27 C32.7665833,27.4223249 33.6100762,28.0505237 34.2891247,28.8846154 C34.9681732,29.718707 35.3076923,30.8220143 35.3076923,32.1945701 Z M21.8116711,21.9004525 C21.8116711,22.8295672 22.1671052,23.5475088 22.8779841,24.0542986 C23.588863,24.5610885 24.6339454,24.993965 26.0132626,25.3529412 L26.0132626,18.3846154 C24.7400467,18.5535453 23.7214892,18.938911 22.9575597,19.540724 C22.1936301,20.1425369 21.8116711,20.9291052 21.8116711,21.9004525 Z M27.9549072,35.6153846 C30.9469646,35.4042222 32.4429708,34.2006143 32.4429708,32.0045249 C32.4429708,31.1809914 32.0663168,30.5422345 31.3129973,30.0882353 C30.5596779,29.634236 29.4403257,29.2066385 27.9549072,28.8054299 L27.9549072,35.6153846 Z" id="$"></path>
			        </g>
			    </g>
			</svg>